<svg xmlns="http://www.w3.org/2000/svg" width="40" height="40" viewBox="0 0 40 40"><g transform="translate(-670 -309)"><circle cx="20" cy="20" r="20" transform="translate(670 309)" fill="#d4dae4"/><path d="M18.407,16.136,14.773,12.5a.874.874,0,0,0-.62-.255h-.594a7.578,7.578,0,1,0-1.312,1.312v.594a.874.874,0,0,0,.255.62l3.634,3.634a.871.871,0,0,0,1.236,0L18.4,17.375A.879.879,0,0,0,18.407,16.136ZM7.581,12.247a4.665,4.665,0,1,1,4.665-4.665A4.663,4.663,0,0,1,7.581,12.247Z" transform="translate(680.669 319.668)" fill="#374659"/></g></svg>