<svg xmlns="http://www.w3.org/2000/svg" width="38" height="38" viewBox="0 0 38 38"><g transform="translate(-0.385 0)"><circle cx="19" cy="19" r="19" transform="translate(0.385 0)" fill="#d2dae5"/><path d="M14.8,8.483a5.632,5.632,0,0,0-1.865.2C10.414,6.538,3.747.863,3.238.334A1.006,1.006,0,0,0,2.49,0,1.664,1.664,0,0,0,1.428.479C1.084.808-.218,2.214.032,2.474.78,3.242.979,3.4,1.288,3.71c.464.474,1.411-.05,1.8.115a.735.735,0,0,1,.519.623,9.32,9.32,0,0,1-.15,1.182,1.248,1.248,0,0,0,.459.948,1.049,1.049,0,0,0,.778.434c.449.01,1.042-.638,1.516-.155s-.309,1.182-.249,1.7a1.883,1.883,0,0,0,1.077,1.2c.3.065,1.087-.583,1.531-.484a1.041,1.041,0,0,1,.549.569c.05.229-.344,1.247-.294,1.476a3.507,3.507,0,0,0,.519.868,5.617,5.617,0,0,0-.469,2.379,6.068,6.068,0,0,0,5.945,6.184,6.06,6.06,0,0,0,5.935-6.184A5.977,5.977,0,0,0,14.8,8.483Zm1.157,9.071a1.6,1.6,0,1,1,1.6-1.6A1.594,1.594,0,0,1,15.96,17.554Z" transform="translate(19.384 4.329) rotate(45)" fill="#374659"/></g></svg>