<svg xmlns="http://www.w3.org/2000/svg" width="12.785" height="11.36" viewBox="0 0 12.785 11.36">
  <g id="Group_856" data-name="Group 856" transform="translate(-1837.744 -14.239)">
    <path id="Path_3225" data-name="Path 3225" d="M7863.071,6560.649h-6.688a.721.721,0,0,1,0-1.441h5.968v-8.478h-5.968a.721.721,0,0,1,0-1.441h6.688a.721.721,0,0,1,.721.721v9.919A.721.721,0,0,1,7863.071,6560.649Z" transform="translate(-6013.263 -6535.05)" fill="#fff"/>
    <path id="Union_1" data-name="Union 1" d="M2.769,4.317.154,2.487a.36.36,0,0,1,0-.591L2.769.066a.36.36,0,0,1,.567.3V1.489H8.8a.721.721,0,0,1,0,1.442H3.335V4.022a.361.361,0,0,1-.361.361A.355.355,0,0,1,2.769,4.317Z" transform="translate(1837.744 17.709)" fill="#fff"/>
  </g>
</svg>
