<svg xmlns="http://www.w3.org/2000/svg" width="40" height="40" viewBox="0 0 40 40"><g transform="translate(-670 -309)"><circle cx="20" cy="20" r="20" transform="translate(670 309)" fill="#d4dae4"/><path d="M8.879,10.148A5.074,5.074,0,1,0,3.805,5.074,5.073,5.073,0,0,0,8.879,10.148Zm3.552,1.268h-.662a6.9,6.9,0,0,1-5.779,0H5.328A5.329,5.329,0,0,0,0,16.744v1.649a1.9,1.9,0,0,0,1.9,1.9H15.856a1.9,1.9,0,0,0,1.9-1.9V16.744A5.329,5.329,0,0,0,12.431,11.416Zm12.8-5.09-1.1-1.114a.47.47,0,0,0-.666,0L19.312,9.331l-1.8-1.815a.47.47,0,0,0-.666,0L15.729,8.618a.47.47,0,0,0,0,.666l3.239,3.262a.47.47,0,0,0,.666,0l5.6-5.557a.474.474,0,0,0,0-.666Z" transform="translate(678.315 318.852)" fill="#374659"/></g></svg>