<svg xmlns="http://www.w3.org/2000/svg" width="40" height="40" viewBox="0 0 40 40"><g transform="translate(-670 -309)"><circle cx="20" cy="20" r="20" transform="translate(670 309)" fill="#374659"/><g transform="translate(567.719 317.386)"><path d="M125.3,9.87a26.161,26.161,0,0,0-2.657-1.2,5.965,5.965,0,0,1-1.459-.817,1.269,1.269,0,0,1,.314-2.257,2.56,2.56,0,0,1,.893-.184,6.779,6.779,0,0,1,3.357.664c.53.256.7.175.884-.377.188-.583.346-1.176.521-1.764a.616.616,0,0,0-.4-.821,8.533,8.533,0,0,0-2.118-.633c-.96-.148-.96-.153-.965-1.117,0-1.36,0-1.36-1.369-1.36-.2,0-.395,0-.592,0-.637.018-.745.13-.763.772-.009.287,0,.574,0,.866,0,.853-.009.839-.826,1.135a4.553,4.553,0,0,0-3.325,4.218,4.323,4.323,0,0,0,2.446,4.133A27.037,27.037,0,0,0,122.3,12.5a4.54,4.54,0,0,1,1.113.655,1.526,1.526,0,0,1-.364,2.675,3.66,3.66,0,0,1-1.961.256,8.753,8.753,0,0,1-2.989-.893c-.552-.287-.714-.211-.9.386-.162.516-.305,1.037-.449,1.557-.193.7-.121.866.548,1.194a9.543,9.543,0,0,0,2.693.772c.727.117.749.148.758.9,0,.341,0,.687.009,1.028a.61.61,0,0,0,.655.691c.5.009,1.01.009,1.512,0a.575.575,0,0,0,.624-.651c0-.467.022-.938,0-1.4a.742.742,0,0,1,.642-.844,5.072,5.072,0,0,0,2.643-1.7A4.769,4.769,0,0,0,125.3,9.87Z" transform="translate(0 0)" fill="#fff"/></g></g></svg>