<?xml version="1.0" encoding="utf-8"?>
<!-- Generator: Adobe Illustrator 25.0.1, SVG Export Plug-In . SVG Version: 6.00 Build 0)  -->
<svg version="1.1" id="Layer_1" xmlns="http://www.w3.org/2000/svg" xmlns:xlink="http://www.w3.org/1999/xlink" x="0px" y="0px"
	 viewBox="0 0 76.5 76.5" style="enable-background:new 0 0 76.5 76.5;" xml:space="preserve">
<style type="text/css">
	.st0{fill:#D2DAE5;}
	.st1{fill:#364659;}
</style>
<g>
	<circle class="st0" cx="38.3" cy="38.3" r="38.3"/>
	<g>
		<circle class="st1" cx="35.8" cy="30" r="8.4"/>
		<path class="st1" d="M40.4,47.8c0-1.7,0.4-3.2,1.2-4.6H28.2c-4.9,0-8.8,3.9-8.8,8.8v2.4h23.7C41.4,52.7,40.4,50.3,40.4,47.8z"/>
		<path class="st1" d="M52.6,40.3l-0.4-15.8c0-0.3-0.2-0.5-0.5-0.5h-3.6l-0.7,2.4c-0.1,0.2,0,0.3,0.2,0.4l1.5,0.6
			c0.1,0.1,0.2,0.2,0.2,0.3v1.6c0,0.1,0,0.2-0.1,0.3l-1.4,1.1c-0.2,0.1-0.2,0.4,0,0.5l1.4,0.9c0.1,0.1,0.2,0.2,0.2,0.3v1.9
			c0,0.1-0.1,0.2-0.1,0.3l-1.4,1c-0.2,0.1-0.2,0.4,0,0.6l1.3,0.8c0.1,0.1,0.2,0.2,0.2,0.3v2c0,0.1,0,0.2-0.1,0.3l-3.2,2.2
			c-2.3,1.5-3.6,4.3-3.1,7.3c0.5,2.9,2.8,5.2,5.6,5.7c4.6,0.9,8.7-2.6,8.7-7.1c0-2.8-1.6-5.2-3.9-6.4C52.8,41.1,52.6,40.7,52.6,40.3
			z M49.9,52.4c-1.3,0-2.3-1-2.3-2.3c0-1.3,1-2.3,2.3-2.3c1.3,0,2.3,1,2.3,2.3C52.2,51.3,51.2,52.4,49.9,52.4z"/>
	</g>
</g>
</svg>
