<svg xmlns="http://www.w3.org/2000/svg" width="40" height="40" viewBox="0 0 40 40"><g transform="translate(-670 -309)"><circle cx="20" cy="20" r="20" transform="translate(670 309)" fill="#374659"/><path d="M9.308,5.214l1.807.517a.3.3,0,0,1-.083.6H9.846a.93.93,0,0,1-.372-.079.448.448,0,0,0-.509.072l-.632.632a.433.433,0,0,0,.054.665,2.64,2.64,0,0,0,1.149.416v.64a.58.58,0,0,0,.578.578h.578a.58.58,0,0,0,.578-.578V8.036A2.033,2.033,0,0,0,13.051,5.76,2.12,2.12,0,0,0,11.5,4.036L9.694,3.519a.3.3,0,0,1,.083-.6h1.185A.93.93,0,0,1,11.335,3a.448.448,0,0,0,.509-.072l.632-.632a.433.433,0,0,0-.054-.665,2.64,2.64,0,0,0-1.149-.416V.578A.58.58,0,0,0,10.7,0h-.578a.58.58,0,0,0-.578.578v.636A2.033,2.033,0,0,0,7.758,3.49,2.12,2.12,0,0,0,9.308,5.214Zm9.983,6.641a1.085,1.085,0,0,0-1.456,0l-3.151,2.67a2.1,2.1,0,0,1-1.366.506H9.283a.579.579,0,0,1,0-1.156h2.67a1.157,1.157,0,0,0,.058-2.312H6.551a3.863,3.863,0,0,0-2.526.95L2.439,13.875H.546A.564.564,0,0,0,0,14.453v3.469a.564.564,0,0,0,.546.578H12.719a2.116,2.116,0,0,0,1.366-.506l5.16-4.372a1.2,1.2,0,0,0,.047-1.767Z" transform="translate(680 319)" fill="#fff"/></g></svg>