<svg xmlns="http://www.w3.org/2000/svg" width="40" height="40" viewBox="0 0 40 40"><g transform="translate(-670 -309)"><circle cx="20" cy="20" r="20" transform="translate(670 309)" fill="#374659"/><g transform="translate(678.937 268.802)"><g transform="translate(0 51.198)"><path d="M21.878,56.933l-5.527-5.5A.79.79,0,0,0,15,51.984v2.359H9.475a.786.786,0,1,0,0,1.573h6.317a.788.788,0,0,0,.79-.786V53.883L20.2,57.489,16.582,61.1V59.848a.788.788,0,0,0-.79-.786H7.106V56.7a.79.79,0,0,0-1.348-.556l-5.527,5.5a.784.784,0,0,0,0,1.112l5.527,5.5a.791.791,0,0,0,.558.23.788.788,0,0,0,.79-.786V65.352h5.527a.786.786,0,1,0,0-1.573H6.317a.788.788,0,0,0-.79.786v1.247L1.906,62.207,5.527,58.6v1.247a.788.788,0,0,0,.79.786H15v2.359a.79.79,0,0,0,1.348.556l5.527-5.5A.784.784,0,0,0,21.878,56.933Z" transform="translate(0 -51.198)" fill="#fff"/></g></g></g></svg>