<svg xmlns="http://www.w3.org/2000/svg" width="13.48" height="14.978" viewBox="0 0 13.48 14.978"><g transform="translate(-5.25 -3.75)"><path d="M17.98,27.942a.75.75,0,0,1-.75-.75V25.628a2.317,2.317,0,0,0-2.245-2.378H9A2.317,2.317,0,0,0,6.75,25.628v1.564a.75.75,0,1,1-1.5,0V25.628A3.818,3.818,0,0,1,9,21.75h5.99a3.818,3.818,0,0,1,3.745,3.878v1.564A.75.75,0,0,1,17.98,27.942Z" transform="translate(0 -9.214)" fill="#fff"/><path d="M15.128,11.506a3.878,3.878,0,1,1,3.878-3.878A3.882,3.882,0,0,1,15.128,11.506Zm0-6.256a2.378,2.378,0,1,0,2.378,2.378A2.381,2.381,0,0,0,15.128,5.25Z" transform="translate(-3.138)" fill="#fff"/></g></svg>